<svg id="Ebene_1" data-name="Ebene 1" xmlns="http://www.w3.org/2000/svg" viewBox="0 0 190.83 30.44"><defs><style>.cls-1{fill:#0fb2b2;}</style></defs><title>carcada</title><path class="cls-1" d="M450.74,505.93l4.39,3.3a12.43,12.43,0,0,1-1.56,1.9A11.5,11.5,0,0,1,434,503a11.46,11.46,0,0,1,19.6-8.08,10.31,10.31,0,0,1,1.56,1.88l-4.39,3.3a5.94,5.94,0,0,0-1-1.34A6,6,0,0,0,439.46,503a5.94,5.94,0,0,0,1.73,4.25,6,6,0,0,0,8.52,0A5.62,5.62,0,0,0,450.74,505.93Z" transform="translate(-405 -484.56)"/><path class="cls-1" d="M475.64,512.79a11.32,11.32,0,0,1-6.1,1.71A11.45,11.45,0,1,1,481,503V514.5h-5.4Zm-10.35-14a5.86,5.86,0,0,0-1.73,4.25,5.94,5.94,0,0,0,1.73,4.25A6,6,0,0,0,475.56,503a6,6,0,0,0-6-6A5.87,5.87,0,0,0,465.28,498.78Z" transform="translate(-405 -484.56)"/><path class="cls-1" d="M490.84,492.45a11.39,11.39,0,0,1,4.39-.88v5.37a5.76,5.76,0,0,0-2.29.46,6,6,0,0,0-1.88,1.29,5.64,5.64,0,0,0-1.25,1.86,4,4,0,0,0-.46,2.1V514.5H484V491.55h5.4v1.68A9.84,9.84,0,0,1,490.84,492.45Z" transform="translate(-405 -484.56)"/><path class="cls-1" d="M513.74,505.93l4.39,3.3a12.43,12.43,0,0,1-1.56,1.9A11.5,11.5,0,0,1,497,503a11.46,11.46,0,0,1,19.6-8.08,10.31,10.31,0,0,1,1.56,1.88l-4.39,3.3a5.94,5.94,0,0,0-1-1.34A6,6,0,0,0,502.46,503a5.94,5.94,0,0,0,1.73,4.25,6,6,0,0,0,8.52,0A5.62,5.62,0,0,0,513.74,505.93Z" transform="translate(-405 -484.56)"/><path class="cls-1" d="M538.64,512.79a11.32,11.32,0,0,1-6.1,1.71A11.45,11.45,0,1,1,544,503V514.5h-5.4Zm-10.35-14a5.86,5.86,0,0,0-1.73,4.25,5.94,5.94,0,0,0,1.73,4.25A6,6,0,0,0,538.56,503a6,6,0,0,0-6-6A5.87,5.87,0,0,0,528.29,498.78Z" transform="translate(-405 -484.56)"/><path class="cls-1" d="M569.93,503a11.4,11.4,0,1,1-5.4-9.79v-8.68h5.4Zm-11.47-6a6,6,0,1,0,0,12,6,6,0,0,0,0-12Z" transform="translate(-405 -484.56)"/><path class="cls-1" d="M590.44,512.79a11.32,11.32,0,0,1-6.1,1.71A11.45,11.45,0,1,1,595.83,503V514.5h-5.4Zm-10.35-14a5.86,5.86,0,0,0-1.73,4.25,5.94,5.94,0,0,0,1.73,4.25A6,6,0,0,0,590.36,503a6,6,0,0,0-6-6A5.87,5.87,0,0,0,580.08,498.78Z" transform="translate(-405 -484.56)"/><circle class="cls-1" cx="3.5" cy="9.94" r="3.5"/><circle class="cls-1" cx="11.5" cy="9.94" r="3.5"/><circle class="cls-1" cx="3.5" cy="26.94" r="3.5"/><circle class="cls-1" cx="11.5" cy="26.94" r="3.5"/><circle class="cls-1" cx="3.5" cy="18.44" r="3.5"/></svg>